<?xml version="1.0" encoding="UTF-8" standalone="no"?>
<svg
   width="135"
   height="380"
   viewBox="0 0 135 380"
   version="1.1"
   id="svg204"
   sodipodi:docname="MyModule.svg"
   inkscape:version="1.4 (86a8ad7, 2024-10-11)"
   xmlns:inkscape="http://www.inkscape.org/namespaces/inkscape"
   xmlns:sodipodi="http://sodipodi.sourceforge.net/DTD/sodipodi-0.dtd"
   xmlns="http://www.w3.org/2000/svg"
   xmlns:svg="http://www.w3.org/2000/svg"
   xmlns:rdf="http://www.w3.org/1999/02/22-rdf-syntax-ns#"
   xmlns:cc="http://creativecommons.org/ns#"
   xmlns:dc="http://purl.org/dc/elements/1.1/">
  <metadata
     id="metadata208">
    <rdf:RDF>
      <cc:Work
         rdf:about="">
        <dc:format>image/svg+xml</dc:format>
        <dc:type
           rdf:resource="http://purl.org/dc/dcmitype/StillImage" />
      </cc:Work>
    </rdf:RDF>
  </metadata>
  <sodipodi:namedview
     pagecolor="#ffffff"
     bordercolor="#666666"
     borderopacity="1"
     objecttolerance="10"
     gridtolerance="10"
     guidetolerance="10"
     inkscape:pageopacity="0"
     inkscape:pageshadow="2"
     inkscape:window-width="1147"
     inkscape:window-height="793"
     id="namedview206"
     showgrid="false"
     inkscape:zoom="1.2421053"
     inkscape:cx="14.088983"
     inkscape:cy="137.26695"
     inkscape:window-x="0"
     inkscape:window-y="0"
     inkscape:window-maximized="0"
     inkscape:current-layer="b0fb59b7-79e5-4953-8b1a-b1abfd5461a5"
     inkscape:showpageshadow="2"
     inkscape:pagecheckerboard="0"
     inkscape:deskcolor="#d1d1d1" />
  <defs
     id="defs7">
    <linearGradient
       id="baa64315-4931-498e-af67-d6da8ab80390"
       x1="67.5"
       x2="67.5"
       y2="380"
       gradientUnits="userSpaceOnUse">
      <stop
         offset="0"
         stop-color="#ebebeb"
         id="stop2" />
      <stop
         offset="1"
         stop-color="#e1e1e1"
         id="stop4" />
    </linearGradient>
  </defs>
  <g
     id="e9b38bee-4663-48ee-9fc0-f9212f6e8629"
     data-name="FND BG">
    <rect
       width="135"
       height="380"
       fill="url(#baa64315-4931-498e-af67-d6da8ab80390)"
       id="rect9" />
  </g>
  <g
     id="f1f1ce8a-1ec9-4912-89c6-d8358427d7f0"
     data-name="FND GRAPH">
    <rect
       x="5.1897898"
       y="330.76736"
       width="124.62598"
       height="37.546738"
       rx="2.83465"
       fill="#1f1f1f"
       id="rect12"
       style="stroke-width:0.979222" />
    <line
       x1="14.99448"
       y1="250.30508"
       x2="119.99448"
       y2="250.30508"
       fill="none"
       stroke="#1f1f1f"
       stroke-linecap="round"
       stroke-linejoin="round"
       stroke-width="0.8"
       id="line26"
       inkscape:label="line26" />
  </g>
  <g
     id="b0fb59b7-79e5-4953-8b1a-b1abfd5461a5"
     data-name="FND TXT">
    <g
       id="g119">
      <path
         d="M55.35059,20.4165a.96338.96338,0,1,1,1.92675,0v6.11866h3.56641a.87573.87573,0,1,1,0,1.75146H56.314a.95607.95607,0,0,1-.96337-.96338Z"
         fill="#1f1f1f"
         id="path113" />
      <path
         d="M63.06445,20.49121a.95607.95607,0,0,1,.96387-.96289h4.9043a.87574.87574,0,1,1,0,1.75147H64.99121V23.144h3.37891a.87574.87574,0,0,1,0,1.75147H64.99121v2.50293a.96338.96338,0,1,1-1.92676,0Z"
         fill="#1f1f1f"
         id="path115" />
      <path
         d="M70.72266,23.93262v-.02539a4.6564,4.6564,0,0,1,9.30859-.02491v.02491a4.65641,4.65641,0,0,1-9.30859.02539Zm7.29492,0v-.02539a2.6612,2.6612,0,0,0-2.65332-2.75244,2.61924,2.61924,0,0,0-2.627,2.72753v.02491a2.66083,2.66083,0,0,0,2.65235,2.75293A2.61973,2.61973,0,0,0,78.01758,23.93262Z"
         fill="#1f1f1f"
         id="path117" />
    </g>
  </g>
  <g
     id="ec3f25a4-ddff-4123-a9d7-7c4339c5cec6"
     data-name="components"
     inkscape:groupmode="layer"
     style="display:none" />
</svg>
